<?xml version="1.0" standalone="no"?>
<!DOCTYPE svg PUBLIC "-//W3C//DTD SVG 20010904//EN"
 "http://www.w3.org/TR/2001/REC-SVG-20010904/DTD/svg10.dtd">
<svg version="1.0" xmlns="http://www.w3.org/2000/svg"
 width="759.000000pt" height="287.000000pt" viewBox="0 0 759.000000 287.000000"
 preserveAspectRatio="xMidYMid meet">
<metadata>
Created by potrace 1.12, written by Peter Selinger 2001-2015
</metadata>
<g transform="translate(0.000000,287.000000) scale(0.100000,-0.100000)"
fill="#000000" stroke="none">
<path d="M3350 2849 c-1634 -73 -2969 -542 -3275 -1150 -76 -150 -90 -307 -41
-454 213 -632 1478 -1128 3151 -1235 206 -13 1023 -13 1230 0 1704 109 2992
629 3160 1275 19 75 19 191 -1 275 -50 215 -245 435 -549 620 -774 472 -2216
735 -3675 669z m1095 -149 c1545 -110 2682 -515 2952 -1051 51 -102 67 -231
42 -339 -116 -506 -1104 -948 -2475 -1110 -1098 -129 -2306 -68 -3254 166
-847 208 -1403 532 -1533 893 -25 70 -33 189 -17 264 67 327 499 639 1189 861
571 184 1249 291 2081 330 142 7 865 -3 1015 -14z"/>
<path d="M3345 2599 c-1163 -52 -2174 -293 -2702 -644 -264 -176 -382 -354
-371 -560 4 -74 9 -94 46 -167 253 -508 1421 -894 2952 -978 238 -13 822 -13
1060 0 1331 73 2394 374 2821 800 69 68 94 102 129 173 40 80 44 97 48 176 7
151 -44 265 -179 401 -529 533 -2151 873 -3804 799z m-65 -243 c52 -8 167 -27
255 -41 348 -55 503 -68 800 -69 235 -1 294 2 366 17 47 10 103 17 125 15 36
-3 39 -6 42 -34 8 -87 -253 -215 -468 -230 -168 -12 -402 33 -730 141 -92 30
-169 55 -173 55 -4 0 -7 -6 -7 -14 0 -8 -42 -51 -92 -97 -112 -100 -167 -160
-239 -259 -100 -137 -104 -148 -61 -144 119 13 230 26 247 30 17 4 20 13 21
62 0 68 23 115 67 142 38 24 68 25 106 5 66 -34 60 -126 -14 -200 -22 -22 -49
-45 -60 -52 -20 -12 -20 -13 4 -33 13 -11 29 -20 36 -20 8 0 11 -8 8 -20 -9
-33 -56 -26 -96 14 -32 32 -37 33 -78 26 -24 -5 -106 -16 -183 -24 -76 -9
-142 -19 -146 -21 -4 -3 -29 -40 -56 -82 -26 -43 -105 -163 -175 -268 -267
-397 -406 -525 -609 -556 -239 -37 -430 66 -491 264 -45 144 -9 278 102 390
95 94 257 159 267 105 2 -11 -15 -28 -52 -52 -62 -40 -118 -109 -141 -175 -48
-141 28 -282 161 -297 158 -19 356 96 562 327 108 120 268 327 259 335 -8 8
-174 -24 -216 -42 -19 -8 -43 -22 -53 -31 -21 -19 -48 -11 -48 15 0 55 145
118 316 137 l61 7 74 102 c95 129 291 327 391 393 72 48 75 51 50 57 -310 66
-410 77 -567 65 -335 -27 -555 -172 -555 -366 0 -137 137 -160 300 -51 34 22
78 63 97 90 55 76 88 59 58 -31 -40 -121 -173 -259 -286 -296 -72 -24 -165
-23 -216 3 -168 86 -187 327 -40 489 117 128 297 203 561 233 101 12 404 4
516 -14z m2637 -528 c-13 -24 -138 -244 -276 -490 -270 -479 -279 -500 -216
-506 48 -4 146 61 272 182 95 91 116 106 128 96 8 -7 15 -18 15 -24 0 -22
-102 -146 -188 -227 -104 -100 -188 -146 -277 -155 -87 -8 -123 14 -162 94 0
2 -23 -8 -50 -21 -93 -47 -153 -61 -255 -62 -91 0 -98 2 -139 30 -59 42 -92
109 -97 198 -4 65 -5 68 -26 61 -29 -9 -221 -17 -251 -10 -37 9 -84 54 -109
104 l-23 45 -65 -119 c-36 -65 -89 -163 -117 -216 l-53 -98 -104 0 c-57 0
-104 3 -104 6 0 3 64 114 142 247 154 262 196 358 174 392 -9 13 -24 20 -44
19 -68 -3 -172 -106 -352 -349 -118 -159 -204 -241 -304 -291 -68 -33 -83 -37
-155 -37 -67 0 -90 5 -136 27 -58 29 -108 81 -127 132 l-11 32 -63 -43 c-85
-59 -103 -63 -125 -34 -19 25 -25 49 -11 49 4 0 37 24 73 53 57 48 72 68 138
193 96 182 150 256 223 310 64 47 165 84 228 84 30 0 43 -6 60 -27 11 -14 19
-31 17 -36 -1 -5 -27 -17 -57 -27 -87 -27 -140 -58 -201 -119 -80 -81 -139
-208 -139 -300 1 -48 32 -115 64 -136 40 -26 106 -30 167 -10 73 24 182 133
229 227 27 56 33 82 38 157 4 83 3 95 -22 144 -31 63 -32 74 -9 99 28 31 69
23 97 -19 29 -44 56 -139 56 -198 l0 -40 47 55 c82 97 198 207 240 229 51 26
149 29 193 6 33 -17 60 -61 60 -100 0 -34 9 -32 55 16 105 108 263 122 319 29
35 -59 11 -153 -49 -190 -62 -38 -160 -15 -187 45 -6 14 -17 25 -24 25 -20 0
-53 -48 -60 -88 -24 -127 89 -188 242 -131 48 18 81 45 213 173 175 171 224
202 344 219 119 16 188 -15 244 -110 l26 -44 22 38 c12 21 82 138 154 261
l132 222 100 0 101 0 -25 -42z"/>
<path d="M5155 1378 c-95 -35 -201 -138 -256 -251 -133 -273 44 -393 258 -175
74 76 167 208 154 221 -5 5 -2 30 6 59 35 118 -44 188 -162 146z"/>
</g>
</svg>
