<svg display="none" width="0" height="0" version="1.1" xmlns="http://www.w3.org/2000/svg" xmlns:xlink="http://www.w3.org/1999/xlink">
    <defs>
        <symbol id="mexico-def-chp" viewBox="0 0 1024 1024">
	        <title>mexico-def-chp</title>
            <path style="fill:#d3d3d3"
             d="M 819.59362,672.27757 C 815.09095,668.06244 810.28194,663.5055 808.90694,662.15102 C 806.4356,659.71656 806.43275,659.69445 808.65832,660.22162 C 809.97626,660.53381 810.66155,660.3534 810.31118,659.78649 C 809.69695,658.79264 805.71953,657.02967 802.72184,656.42255 C 799.53892,655.77791 797.33168,654.09231 791.72272,648.02287 C 788.63169,644.67808 785.55353,641.94143 784.88236,641.94143 C 784.01348,641.94143 783.96359,641.57809 784.70914,640.67976 C 785.48591,639.74382 785.11145,639.11381 783.25866,638.23944 C 781.11845,637.22942 780.93213,637.26686 781.95646,638.5011 C 784.36685,641.40544 780.87513,639.94122 774.73329,635.47213 C 771.35513,633.01402 768.09972,630.76402 767.49905,630.47213 C 766.75501,630.11057 766.80533,629.75552 767.65694,629.3581 C 769.59113,628.45547 769.13319,626.94143 766.92599,626.94143 C 765.57504,626.94143 764.75691,626.06686 764.35347,624.19143 C 764.02811,622.67893 763.06916,619.79377 762.22247,617.77995 C 760.74725,614.27122 760.81843,613.70805 763.92871,604.27995 C 765.71383,598.86877 767.50216,593.99143 767.90278,593.44143 C 768.30339,592.89143 768.92473,591.21211 769.28354,589.70962 C 769.65756,588.14342 771.12671,586.36202 772.72674,585.53461 C 775.73646,583.97823 777.90694,580.22155 777.90694,576.56869 C 777.90694,575.31544 779.0637,573.20334 780.47752,571.87512 C 782.33134,570.13355 782.9119,568.7605 782.55962,566.95081 C 781.88357,563.47786 784.65079,557.94143 787.06269,557.94143 C 790.07503,557.94143 792.63592,561.06275 793.23632,565.46608 C 794.15888,572.23211 795.58594,574.94143 798.2272,574.94143 C 799.53057,574.94143 801.41145,575.84143 802.40694,576.94143 C 803.40243,578.04143 804.70967,578.93366 805.31193,578.92415 C 806.69425,578.90234 810.06675,575.36581 812.5203,571.36517 C 815.95748,565.76067 819.74978,561.94143 821.87756,561.94143 C 823.03242,561.94143 825.11211,561.19788 826.4991,560.28909 C 828.93053,558.69595 829.18113,558.7497 833.49315,561.78909 C 835.95289,563.52288 838.38642,564.94143 838.90099,564.94143 C 840.57433,564.94143 841.91951,568.52886 840.70252,569.74585 C 839.09211,571.35626 841.05426,573.3399 845.81025,574.90952 C 847.97282,575.62323 849.55141,576.70988 849.31823,577.3243 C 849.08505,577.93872 851.03462,579.77528 853.6506,581.40554 C 856.26659,583.0358 860.30319,586.35268 862.62083,588.77638 C 865.33472,591.61448 867.38152,592.97329 868.37083,592.59366 C 869.21569,592.26946 869.90694,592.40518 869.90694,592.89526 C 869.90694,593.38535 871.40413,594.28044 873.23403,594.88436 C 876.60414,595.9966 880.07438,599.74289 881.29396,603.58546 C 881.70482,604.87997 883.70756,606.35738 886.49411,607.42157 C 890.80279,609.06707 890.94404,609.24295 889.36142,610.99173 C 888.1908,612.28524 887.80216,614.14155 888.05186,617.24662 L 888.40694,621.66211 L 871.90694,622.31973 C 862.83194,622.68142 852.80818,623.25367 849.63191,623.59139 L 843.85688,624.20543 L 837.95796,635.32343 C 834.71356,641.43833 831.64804,646.90655 831.14571,647.47503 C 828.81921,650.1079 828.93559,653.61972 831.42693,655.96021 C 833.96081,658.34067 834.66012,661.78825 832.95497,663.4934 C 832.10593,664.34244 831.85763,666.99713 831.89368,674.84032 C 831.9053,677.36917 830.30555,679.94143 828.72117,679.94143 C 828.20369,679.94143 824.09629,676.49269 819.59362,672.27757 z"
             id="CHP" />
        </symbol>
        <symbol id="mexico-def-oax" viewBox="0 0 1024 1024">
	        <title>mexico-def-oax</title>
            <path
     style="fill:#d3d3d3"
     d="M 674.64279,643.81348 C 673.75885,643.3188 670.76782,642.48398 667.99606,641.95833 C 665.22429,641.43268 661.11096,639.78128 658.85531,638.28857 C 655.66237,636.17558 652.94403,635.4003 646.58054,634.78778 C 642.08506,634.35506 636.69217,633.82068 634.59634,633.60026 C 632.31615,633.36045 629.70562,632.18457 628.09634,630.67242 C 623.18564,626.05811 618.65885,623.9491 613.65694,623.94517 C 611.04444,623.94311 608.90694,623.65553 608.90694,623.3061 C 608.90694,622.95667 609.91944,621.63933 611.15694,620.37867 C 612.39444,619.11802 613.85694,617.61031 614.40694,617.02821 C 614.95694,616.44612 617.78838,613.82596 620.69904,611.20564 L 625.99114,606.44143 L 625.05529,601.56908 C 624.30559,597.66591 623.22328,595.87567 619.61423,592.56908 C 614.33943,587.73634 613.0574,584.22637 612.80024,573.91358 C 612.56773,564.58941 613.9006,561.94143 618.82649,561.94143 C 620.71764,561.94143 623.7591,562.48172 625.58529,563.14208 C 630.07264,564.76473 631.89933,563.16425 629.87567,559.38301 C 628.67678,557.14285 628.69121,556.41647 629.98025,554.11988 C 631.85495,550.77989 634.90694,549.96787 634.90694,552.80909 C 634.90694,553.91696 635.3847,555.11867 635.96862,555.47955 C 636.55255,555.84044 637.44141,557.217 637.94387,558.53857 C 639.0462,561.43791 640.47664,561.61396 641.86431,559.02108 C 642.75739,557.35235 643.93477,557.1207 650.85024,557.25311 C 657.44901,557.37946 659.27434,557.05763 661.53595,555.3691 C 664.77074,552.95397 670.79244,542.43657 670.85967,539.08444 C 670.89435,537.35506 671.32813,536.88908 672.48873,537.33444 C 673.35871,537.66829 674.46618,537.94143 674.94977,537.94143 C 676.4675,537.94143 679.90694,542.23524 679.90694,544.12999 C 679.90694,545.12628 680.38035,545.94143 680.95896,545.94143 C 681.53757,545.94143 682.49279,547.32356 683.08168,549.01284 C 684.30332,552.51724 687.20167,553.94143 693.1118,553.94143 C 695.81968,553.94143 697.63206,554.52844 698.51489,555.69143 C 700.30957,558.05562 700.25263,563.40964 698.41661,564.93341 C 696.85807,566.22687 697.1278,569.5105 699.13281,573.65236 C 700.69396,576.87733 708.18452,577.90074 711.21272,575.30279 C 714.32717,572.63084 720.79598,569.49714 721.57958,570.28074 C 721.94296,570.64412 721.71527,570.94143 721.07361,570.94143 C 716.92709,570.94143 724.34263,580.6693 730.15694,582.85714 C 731.91077,583.51708 732.90694,584.62538 732.90694,585.91668 C 732.90694,587.03029 733.46944,587.94384 734.15694,587.94677 C 740.20535,587.97264 767.29133,588.99249 767.5011,589.20226 C 767.64961,589.35077 765.77096,594.98455 763.32631,601.72176 L 758.8815,613.97125 L 760.89422,617.9165 C 763.03236,622.10759 763.48404,624.94143 762.01393,624.94143 C 761.52277,624.94143 760.85095,624.23791 760.52099,623.37805 C 760.19103,622.51819 759.42511,622.12119 758.81894,622.49582 C 758.21276,622.87045 756.42781,622.22398 754.85236,621.0592 C 751.43889,618.53551 750.90694,618.45645 750.90694,620.47281 C 750.90694,621.31508 751.69444,622.26876 752.65694,622.59212 C 757.11554,624.08999 763.90694,627.37055 763.90694,628.02638 C 763.90694,628.42703 760.86944,627.45898 757.15694,625.87518 C 753.44444,624.29138 748.83194,622.97647 746.90694,622.95317 C 742.53804,622.90029 739.93976,621.52655 742.41334,620.57735 C 743.33408,620.22402 744.49682,620.18796 744.99718,620.4972 C 745.49755,620.80645 745.90694,620.59874 745.90694,620.03563 C 745.90694,619.47252 744.96951,618.5101 743.82375,617.89691 C 742.18479,617.01976 741.36834,617.11888 739.99501,618.36173 C 737.67116,620.46478 736.90694,620.353 736.90694,617.91005 C 736.90694,614.83913 734.1838,614.37796 731.997,617.07854 C 729.72595,619.88316 730.25073,621.27141 733.2411,620.36971 C 734.72253,619.92301 735.09094,620.04384 734.40694,620.75209 C 733.85694,621.32158 732.28194,621.99301 730.90694,622.24414 C 729.53194,622.49527 730.65694,622.54138 733.40694,622.34662 C 736.86499,622.1017 737.94435,622.28829 736.90694,622.95165 C 736.08194,623.47919 732.65271,623.9177 729.28642,623.92612 C 723.46767,623.94068 722.97463,624.1386 719.28642,627.94054 C 717.15271,630.14005 714.60361,631.94005 713.62176,631.94054 C 712.63991,631.94103 710.73651,632.66222 709.39199,633.54318 C 708.04747,634.42414 705.14315,635.55032 702.93794,636.0458 C 700.73274,636.54128 696.78613,638.25866 694.16771,639.8622 C 691.54929,641.46574 687.83194,643.03149 685.90694,643.34164 C 678.14788,644.59177 676.18075,644.67417 674.64279,643.81348 z"
     id="OAX" />
        </symbol>
        <symbol id="mexico-def-gro" viewBox="0 0 1024 1024">
	        <title>mexico-def-gro</title>
            <path
     style="fill:#d3d3d3"
     d="M 605.28445,621.48283 C 604.95913,620.63506 604.26206,619.94143 603.73539,619.94143 C 603.20873,619.94143 601.7021,618.66301 600.38733,617.10049 C 598.43897,614.785 597.1666,614.24701 593.50797,614.1917 C 590.37428,614.14432 588.3273,613.47932 586.72758,611.98896 C 585.46724,610.81477 584.27951,610.32373 584.08817,610.89775 C 583.51952,612.60368 581.12345,612.09019 578.99581,609.80645 C 577.47963,608.17902 576.29092,607.81463 573.99563,608.27369 C 572.3395,608.60492 570.74905,608.49498 570.4613,608.02938 C 569.76174,606.89747 565.90694,605.92653 565.90694,606.88224 C 565.90694,607.2967 566.91944,608.12411 568.15694,608.72094 C 570.37965,609.79291 570.38113,609.80689 568.27938,609.87375 C 567.10923,609.91097 565.5625,609.23133 564.8422,608.36342 C 564.1219,607.49552 561.2543,605.64422 558.46975,604.24942 C 555.68521,602.85463 552.59197,600.99512 551.59589,600.11719 C 550.19828,598.88536 549.60931,598.80497 549.01594,599.76506 C 548.25983,600.98848 544.90694,600.39083 544.90694,599.03263 C 544.90694,598.65048 543.37793,598.29446 541.50913,598.24149 C 539.64034,598.18852 534.65023,596.52433 530.42,594.5433 C 526.18977,592.56227 522.31878,590.94143 521.81781,590.94143 C 521.31683,590.94143 520.90694,590.2854 520.90694,589.48358 C 520.90694,588.68177 518.88194,586.83901 516.40694,585.38856 C 513.93194,583.93812 511.90694,582.1709 511.90694,581.46142 C 511.90694,579.82755 507.73745,577.06352 504.15266,576.32097 C 502.4482,575.96791 500.13561,574.04599 498.05453,571.25301 C 494.70279,566.75471 488.89759,563.3473 486.29021,564.34785 C 485.27758,564.73643 484.90694,563.95614 484.90694,561.43573 C 484.90694,558.66967 485.46191,557.7058 487.72977,556.53305 C 492.42618,554.10444 493.34779,552.41995 491.89674,548.91681 C 490.81201,546.29803 490.88384,545.62444 492.43004,543.91591 C 494.73394,541.37012 499.35302,541.38751 501.91713,543.95162 C 503.57457,545.60906 504.67131,545.84025 508.16713,545.26911 C 515.86684,544.01114 525.04232,544.73763 536.05852,547.47748 C 538.19843,548.0097 538.83974,547.72851 539.38191,546.0203 C 539.7514,544.85614 539.92477,542.67437 539.76717,541.17193 C 539.46171,538.25981 540.43035,535.94143 541.95254,535.94143 C 543.18155,535.94143 545.90694,542.55991 545.90694,545.5445 C 545.90694,547.26341 546.62732,548.08413 548.56238,548.5698 C 550.7478,549.1183 551.67707,548.67757 553.81238,546.07984 C 555.96402,543.46224 557.11175,542.92494 560.53562,542.93242 C 564.12551,542.94025 564.81673,542.57343 565.83236,540.12148 C 566.83129,537.70985 567.4473,537.36712 570.0867,537.75451 C 573.48714,538.25358 576.35808,540.63675 577.35937,543.79156 C 578.16924,546.34323 581.52367,547.50441 583.45493,545.9016 C 584.25353,545.23882 584.90694,545.10325 584.90694,545.60034 C 584.90694,546.8432 594.63097,556.94143 595.82777,556.94143 C 596.35894,556.94143 597.38703,557.72893 598.11241,558.69143 C 599.73573,560.84538 603.34903,562.94143 605.43883,562.94143 C 606.29629,562.94143 608.15463,564.09821 609.56847,565.51206 C 612.00536,567.94895 612.1096,568.48219 611.57201,575.76206 C 611.14025,581.60887 611.35118,583.90465 612.45593,585.38256 C 613.25399,586.45018 613.90694,588.13768 613.90694,589.13256 C 613.90694,590.12744 614.2752,590.94143 614.72529,590.94143 C 615.17538,590.94143 617.14358,592.40393 619.09906,594.19143 C 621.88683,596.73972 622.78296,598.44798 623.2495,602.10327 C 623.81767,606.55482 623.66947,606.92324 619.9642,610.27073 C 617.83003,612.19883 615.14407,614.27934 613.99541,614.89408 C 612.84675,615.50882 611.90694,616.58634 611.90694,617.28856 C 611.90694,617.99077 610.54997,619.56857 608.89144,620.79477 C 606.31787,622.69749 605.78926,622.79833 605.28445,621.48283 z"
     id="GRO" />
        </symbol>
        <symbol id="mexico-def-tab" viewBox="0 0 1024 1024">
	        <title>mexico-def-tab</title>
            <path
     style="fill:#d3d3d3"
     d="M 851.57361,579.27476 C 851.20694,578.9081 850.90694,577.87609 850.90694,576.98142 C 850.90694,575.98167 849.26897,574.74708 846.65694,573.77806 C 843.25443,572.51578 842.45677,571.76349 842.65683,570.00546 C 842.96093,567.33327 841.282,563.95633 839.62176,563.90079 C 838.95361,563.87844 836.84894,562.52844 834.94471,560.90079 C 831.20871,557.70741 827.50423,557.17368 824.55974,559.40455 C 823.54378,560.17428 822.03748,560.54502 821.2124,560.2284 C 819.6636,559.63407 816.84198,562.4528 812.49044,568.94143 C 809.22731,573.80712 806.35615,576.94143 805.16209,576.94143 C 804.60645,576.94143 803.59163,576.26643 802.90694,575.44143 C 802.22225,574.61643 800.61871,573.94143 799.34351,573.94143 C 796.39315,573.94143 795.94669,573.15558 795.23813,566.71525 C 794.54827,560.44482 791.58683,556.94143 786.97626,556.94143 C 784.60479,556.94143 783.61064,557.61374 782.33532,560.07993 C 781.39302,561.90214 780.94171,564.36529 781.25925,565.95296 C 781.66577,567.98556 781.20585,569.25144 779.46754,570.8845 C 778.1813,572.09286 776.81684,574.5125 776.43541,576.26147 L 775.7419,579.44143 L 774.72086,576.94143 C 772.60932,571.77133 771.02331,569.40785 768.93386,568.31759 C 765.19862,566.36856 760.14402,560.05535 759.61978,556.68427 C 759.34241,554.90071 758.8103,552.50247 758.43731,551.35486 C 757.91951,549.76168 758.41481,548.83868 760.53192,547.45149 C 762.41642,546.21673 763.42786,546.00419 763.68915,546.78807 C 764.23744,548.43292 765.27417,548.22482 767.90694,545.94143 C 769.17525,544.84143 771.01755,543.94143 772.00093,543.94143 C 772.98432,543.94143 774.10758,543.4258 774.49708,542.79559 C 775.18501,541.68249 773.42538,541.88447 768.24984,543.51267 C 766.58286,544.0371 766.59118,543.97541 768.33707,542.86644 C 770.41776,541.5448 782.81821,538.9348 786.90694,538.95792 C 788.69888,538.96805 789.02086,539.21666 788.04379,539.83569 C 786.90034,540.56013 786.8989,540.77208 788.03486,541.15074 C 788.77968,541.39901 789.97585,541.01538 790.69301,540.29821 C 791.41018,539.58105 793.66419,538.53845 795.70194,537.98131 C 797.73969,537.42418 800.7765,535.72479 802.4504,534.20489 C 805.29706,531.62012 809.30717,528.94143 810.33001,528.94143 C 810.57763,528.94143 810.92123,530.40393 811.09358,532.19143 C 811.38409,535.20445 811.6986,535.46338 815.40694,535.74245 C 820.26915,536.10835 821.90203,538.02313 821.92225,543.38256 C 821.9414,548.45829 822.42396,549.17446 827.58909,551.79281 C 829.88927,552.95883 832.05333,554.36928 832.39811,554.92714 C 833.15482,556.15153 839.87216,556.24979 841.74313,555.06383 C 842.47803,554.598 842.92803,553.14239 842.74313,551.82915 C 842.46878,549.88062 842.89879,549.38458 845.08095,549.13234 C 846.55166,548.96234 849.57123,549.74984 851.79111,550.88234 C 854.011,552.01484 857.37205,552.94143 859.26011,552.94143 C 861.39908,552.94143 862.91135,553.51054 863.27238,554.45136 C 863.59106,555.28182 864.15672,561.35682 864.52941,567.95136 L 865.20702,579.94143 L 858.72365,579.94143 C 855.15779,579.94143 851.94027,579.64143 851.57361,579.27476 z"
     id="TAB" />
        </symbol>
        <symbol id="mexico-def-mic" viewBox="0 0 1024 1024">
	        <title>mexico-def-mic</title>
            <path
     style="fill:#d3d3d3"
     d="M 474.90694,564.44143 C 472.98194,563.70012 470.09634,563.05935 468.49449,563.01751 C 466.89264,562.97567 463.51764,561.63747 460.99449,560.04373 C 458.47134,558.45 453.94215,556.63281 450.92962,556.00554 C 445.32799,554.83916 436.90694,550.59252 436.90694,548.93407 C 436.90694,548.42639 435.63286,546.53286 434.07565,544.72623 C 429.83698,539.80861 429.54134,538.16464 432.305,534.88021 C 433.63085,533.30452 434.88024,531.52154 435.08141,530.91803 C 435.28258,530.31452 436.91667,529.77895 438.71272,529.72789 C 440.50877,529.67682 442.22231,529.24017 442.52058,528.75755 C 442.81886,528.27493 444.5386,528.15691 446.34224,528.49527 C 449.19267,529.03001 450.35772,528.51088 455.25013,524.52595 C 458.34583,522.00447 461.81041,519.94143 462.94918,519.94143 C 465.95322,519.94143 471.04565,514.02293 470.69302,510.94143 C 470.45878,508.89446 469.90861,508.47555 467.65694,508.62969 C 465.41995,508.78284 464.90694,508.40041 464.90694,506.57969 C 464.90694,505.34865 464.44022,503.87471 463.86978,503.30427 C 463.15357,502.58806 463.15357,501.42296 463.86978,499.53917 C 464.44022,498.0388 464.90694,496.47713 464.90694,496.06878 C 464.90694,495.09743 458.17494,492.14503 454.10324,491.33069 C 450.48822,490.60769 450.32145,490.22235 452.36243,487.30843 C 453.43319,485.77971 455.31223,485.0762 459.47099,484.64698 C 463.06286,484.27626 466.50724,483.14817 468.91764,481.55305 C 471.74333,479.68309 474.66804,478.86524 480.38073,478.34757 L 488.05022,477.65258 L 490.92221,480.79701 C 494.27243,484.46503 495.7526,484.67718 498.90694,481.94143 C 503.09845,478.30615 507.90694,480.39114 507.90694,485.84388 C 507.90694,489.57302 511.62205,491.69945 514.98903,489.89749 C 518.93375,487.78635 524.20199,487.88929 525.96187,490.1119 C 527.15976,491.62475 528.95005,492.13426 533.75853,492.3308 C 538.96456,492.54359 540.52253,492.20059 543.14787,490.26367 C 546.57065,487.73843 550.80663,487.24112 552.70694,489.14143 C 554.15493,490.58942 554.3178,496.94143 552.90694,496.94143 C 552.35694,496.94143 551.90694,497.80393 551.90694,498.8581 C 551.90694,499.91226 551.50592,500.92476 551.01578,501.1081 C 550.52564,501.29143 549.68968,506.05318 549.15809,511.68977 C 548.08009,523.11997 543.83533,534.86429 540.76393,534.91455 C 538.65987,534.94897 537.90694,536.98235 537.90694,542.63021 C 537.90694,546.55873 537.67619,547.0566 536.15694,546.40603 C 532.14818,544.68942 523.74704,543.62548 513.49698,543.53633 C 505.73206,543.46879 502.46497,543.08109 502.16364,542.19143 C 501.4552,540.09976 493.4986,540.63017 491.43865,542.90639 C 489.80454,544.71207 489.73135,546.10533 491.02025,550.87128 C 491.23903,551.68027 489.77863,553.38132 487.65694,554.78882 C 484.28345,557.02675 483.90694,557.7115 483.90694,561.60897 C 483.90694,565.68707 483.74548,565.93696 481.15694,565.86535 C 479.64444,565.82351 476.83194,565.18274 474.90694,564.44143 z"
     id="MIC" />
        </symbol>
        <symbol id="mexico-def-pue" viewBox="0 0 1024 1024">
	        <title>mexico-def-pue</title>
            <path
     style="fill:#d3d3d3"
     d="M 608.3077,562.51895 C 607.26228,561.79187 604.94444,560.87873 603.15694,560.48975 C 601.36944,560.10077 599.90694,559.41668 599.90694,558.96954 C 599.90694,558.5224 597.66895,556.44984 594.93362,554.36386 L 589.96031,550.57116 L 594.06269,548.24096 C 596.92233,546.61666 598.53251,546.21572 599.37801,546.91742 C 600.99167,548.25664 601.90694,547.19163 601.90694,543.97476 C 601.90694,542.52643 602.45817,540.7902 603.1319,540.11647 C 604.0898,539.15857 604.09426,538.47103 603.15238,536.96283 C 602.39253,535.74612 602.30949,534.81068 602.92742,534.42877 C 603.47443,534.0907 603.90694,528.77158 603.90694,522.38241 C 603.90694,511.88635 604.06089,510.94143 605.77094,510.94143 C 606.82225,510.94143 608.86453,512.71574 610.45516,515.01102 C 612.00629,517.24929 614.56498,519.74747 616.14114,520.56254 C 619.05569,522.06971 622.90694,521.63258 622.90694,519.79459 C 622.90694,519.19565 624.10316,519.04525 625.83741,519.42616 C 628.19686,519.94438 628.99296,519.64922 629.92303,517.91137 C 630.67974,516.49744 631.72581,515.92231 632.95579,516.24395 C 633.98848,516.51401 635.35966,516.10086 636.00287,515.32584 C 636.93165,514.20673 636.61991,513.40476 634.48811,511.42908 C 633.01179,510.06087 631.15208,508.94143 630.35542,508.94143 C 629.55876,508.94143 628.90694,508.28877 628.90694,507.49108 C 628.90694,506.69338 626.68091,505.01951 623.9602,503.77136 C 618.36961,501.20663 617.05166,498.51494 619.26528,494.1828 C 620.03571,492.67505 620.99677,489.90722 621.40096,488.03207 C 622.02332,485.14476 621.7738,484.34426 619.7714,482.8043 C 618.45644,481.79302 617.99648,480.97603 618.73513,480.96367 C 620.56864,480.93297 627.86912,472.9371 628.07361,470.73567 C 628.16527,469.74884 628.27777,468.15393 628.32361,467.19143 C 628.43802,464.78868 631.74871,461.66673 633.47843,462.33049 C 634.25769,462.62952 634.7854,463.87591 634.65111,465.10024 C 634.47989,466.66124 635.36544,467.94101 637.61521,469.38386 C 641.41572,471.82125 641.32443,473.25386 637.32444,473.94696 C 634.57873,474.42272 634.38897,474.76636 634.10169,479.78313 C 633.82755,484.57062 634.08228,485.35962 636.60169,487.52639 C 640.15572,490.58296 641.29148,490.55732 643.61468,487.36808 L 645.48924,484.79472 L 648.94809,486.61808 C 650.85046,487.62092 652.56853,488.52802 652.76603,488.63385 C 652.96353,488.73969 652.25382,490.08969 651.1889,491.63385 C 648.7306,495.19846 644.93033,506.65851 645.11792,509.94143 C 645.33053,513.66216 646.616,514.80098 652.55062,516.52622 C 658.57502,518.27756 658.6962,519.63168 652.91129,520.55673 C 649.17732,521.15381 647.2661,523.09552 648.47964,525.05906 C 648.7982,525.5745 648.08963,527.99833 646.90504,530.44535 C 644.20881,536.01501 644.58826,538.13178 648.48313,539.24882 C 650.71453,539.88877 651.79815,540.98388 652.47627,543.28427 C 653.44842,546.58215 654.75082,546.99115 659.99898,545.64666 C 662.11752,545.10392 662.84364,545.45463 663.97387,547.56649 C 665.27118,549.99053 665.15626,550.32947 662.11605,553.0459 C 658.75156,556.05207 657.17242,556.35349 646.76884,555.97527 C 643.47192,555.85541 640.84355,556.23499 640.43911,556.88937 C 639.46622,558.46355 635.74399,553.52965 636.47241,551.63141 C 638.14951,547.26096 630.75261,549.4054 628.38975,553.97467 C 626.92725,556.80284 626.92174,557.31507 628.33074,559.46548 C 630.21533,562.34172 628.86632,563.531 625.67761,561.80446 C 622.47202,560.06878 615.71791,560.14682 613.82361,561.94143 C 611.6886,563.96407 610.55602,564.08265 608.3077,562.51895 z"
     id="PUE" />
        </symbol>
        <symbol id="mexico-def-mor" viewBox="0 0 1024 1024">
	        <title>mexico-def-mor</title>
            <path
     style="fill:#d3d3d3"
     d="M 586.90694,545.94143 C 584.65268,542.77561 581.90694,541.93465 581.90694,544.41005 C 581.90694,545.30464 581.32065,545.65368 580.40694,545.30306 C 579.58194,544.98647 578.90694,544.09619 578.90694,543.32465 C 578.90694,542.55311 578.00694,541.15125 576.90694,540.2094 C 575.80694,539.26755 574.90694,538.17433 574.90694,537.78001 C 574.90694,537.38569 576.70694,534.98333 578.90694,532.44143 C 581.10694,529.89953 582.90694,527.12208 582.90694,526.26932 C 582.90694,525.02958 583.65847,524.84821 586.65694,525.36434 C 595.34052,526.85905 595.90694,527.08296 595.90694,529.02089 C 595.90694,530.55001 596.62199,530.94143 599.41541,530.94143 C 602.67356,530.94143 602.83477,531.08413 601.67487,532.94143 C 600.67617,534.54059 600.67617,535.34227 601.67487,536.94143 C 602.41524,538.12695 602.5132,538.94143 601.91541,538.94143 C 601.36075,538.94143 600.90694,540.52024 600.90694,542.4499 C 600.90694,545.75719 600.78476,545.88621 598.77629,544.6999 C 597.06035,543.68638 596.55616,543.68883 596.18594,544.71247 C 595.78582,545.8188 590.86721,548.94143 589.52469,548.94143 C 589.25983,548.94143 588.08184,547.59143 586.90694,545.94143 z"
     id="MOR" />
        </symbol>
        <symbol id="mexico-def-mex" viewBox="0 0 1024 1024">
	        <title>mexico-def-mex</title>
            <path
     style="fill:#d3d3d3"
     d="M 547.57361,547.27476 C 547.20694,546.9081 546.90694,545.68564 546.90694,544.5582 C 546.90694,543.43075 546.19382,540.64102 545.32223,538.35879 C 543.78092,534.32292 543.81039,534.06548 546.39834,528.9584 C 548.35747,525.09224 549.30936,521.16717 550.00792,514.07448 C 550.96363,504.37079 552.40603,498.94143 554.02826,498.94143 C 554.51153,498.94143 554.90694,496.94857 554.90694,494.51286 C 554.90694,491.97422 555.52676,489.46447 556.35932,488.63191 C 557.15813,487.8331 557.51528,486.88311 557.15299,486.52081 C 556.7907,486.15852 557.51258,485.59581 558.75717,485.27035 C 560.13723,484.90945 560.81517,484.14466 560.49488,483.31001 C 559.77184,481.4258 560.87807,481.60435 564.40694,483.94143 C 566.05694,485.03418 568.85361,485.93122 570.62176,485.93484 C 574.20136,485.94218 575.33167,487.35805 576.42947,493.20984 C 577.06842,496.61571 577.41514,496.94143 580.4016,496.94143 C 582.82607,496.94143 583.80834,496.42646 584.19354,494.95347 C 584.75181,492.81864 589.41702,490.52061 591.0916,491.55556 C 591.65086,491.90119 591.86558,493.39824 591.56876,494.88231 C 591.03228,497.56475 591.06238,497.58022 596.68114,497.51103 C 601.9776,497.44581 602.3952,497.61548 603.31893,500.20799 C 604.16287,502.57657 603.9737,503.20637 602.00396,504.58603 C 600.20695,505.8447 599.99921,506.38014 601.05509,507.0317 C 603.01732,508.24253 603.64053,527.86157 601.75473,529.05667 C 599.31557,530.60244 596.90694,530.04834 596.90694,527.94143 C 596.90694,526.83032 596.24027,525.94143 595.40694,525.94143 C 594.34289,525.94143 593.90266,524.85154 593.8922,522.19143 C 593.88409,520.12893 593.24194,517.31643 592.46519,515.94143 C 591.68845,514.56643 590.29381,511.97893 589.36599,510.19143 C 587.6185,506.82477 585.90694,505.90653 585.90694,508.33567 C 585.90694,509.10251 584.49975,511.23632 582.77986,513.07747 C 579.70764,516.36629 579.67429,516.50893 580.87863,521.20802 C 582.24234,526.52893 581.88594,527.44069 575.95825,533.79547 C 573.24661,536.70249 572.38564,537.06621 569.49827,536.52454 C 566.48548,535.95934 566.04726,536.18846 564.91561,538.9205 C 563.79702,541.621 563.20708,541.94143 559.35371,541.94143 C 555.70555,541.94143 554.71485,542.40245 552.90694,544.94143 C 550.84317,547.83973 548.96171,548.66287 547.57361,547.27476 z"
     id="MEX" />
        </symbol>
        <symbol id="mexico-def-col" viewBox="0 0 1024 1024">
	        <title>mexico-def-col</title>
            <path
     style="fill:#d3d3d3"
     d="M 426.72561,534.36257 C 425.25088,533.58539 423.75806,532.0477 423.40822,530.94547 C 423.05839,529.84325 422.14985,528.94143 421.38924,528.94143 C 420.62864,528.94143 419.54764,528.15393 418.98704,527.19143 C 418.01629,525.52476 417.96631,525.52476 417.93735,527.19143 C 417.90049,529.31248 418.02588,529.3069 413.4413,527.39134 C 410.93319,526.34338 409.91164,525.37156 410.28779,524.39134 C 410.5938,523.59389 410.29579,522.87289 409.62556,522.78912 C 407.28333,522.49636 406.38653,522.24491 403.59184,521.09736 C 402.04354,520.4616 400.24354,519.90472 399.59184,519.85986 C 397.21997,519.69657 404.57789,517.16893 411.14716,515.8903 C 416.20497,514.90586 418.03883,514.10125 418.4941,512.66681 C 418.99257,511.09626 419.70605,510.86876 422.49326,511.39165 C 424.35911,511.74168 427.70493,511.48302 429.92842,510.81685 C 435.67244,509.0959 436.47448,510.24782 436.11948,519.70873 C 435.96138,523.92226 435.45953,527.61084 435.00426,527.90556 C 434.54899,528.20029 433.87936,529.39458 433.51619,530.55955 C 433.15302,531.72451 432.07987,533.3747 431.13141,534.22664 C 429.62443,535.58027 429.06878,535.59741 426.72561,534.36257 z"
     id="COL" />
        </symbol>
        <symbol id="mexico-def-cam" viewBox="0 0 1024 1024">
	        <title>mexico-def-cam</title>
            <g
     style="fill:#d3d3d3"
     id="CAM">
    <path
       d="M 876.89163,460.69143 C 876.90677,463.90458 876.96136,463.94143 881.70694,463.94143 C 884.34694,463.94143 886.93444,463.52396 887.45694,463.01372 C 888.04895,462.4356 892.79134,467.08679 900.04181,475.35658 L 911.67667,488.62715 L 913.26092,500.03429 C 915.03115,512.78062 918.50094,554.70526 917.83506,555.30254 C 917.59959,555.51375 907.95694,556.20775 896.40694,556.84476 C 884.85694,557.48177 873.07652,558.26196 870.22823,558.57851 L 865.04952,559.15406 L 864.72823,555.79775 C 864.42549,552.63517 864.14718,552.40831 859.90694,551.86768 C 857.43194,551.55212 853.28796,550.23395 850.6981,548.93841 C 846.66331,546.92007 845.61089,546.75529 843.34599,547.78725 C 841.1998,548.76512 840.81953,549.45703 841.32388,551.46652 C 841.90213,553.77046 841.68577,553.94143 838.19184,553.94143 C 833.51025,553.94143 824.21823,549.21961 823.47785,546.46438 C 823.17887,545.35176 822.9281,542.84393 822.92059,540.89143 C 822.90314,536.35319 821.43334,534.94143 816.72599,534.94143 C 813.52787,534.94143 812.84841,534.5564 812.31815,532.44367 C 811.07219,527.4794 812.1148,526.8641 821.40512,527.08089 C 826.92929,527.20979 830.32013,527.73437 831.01113,528.56697 C 833.0947,531.07752 830.94522,532.04507 824.8231,531.35243 C 820.52485,530.86614 818.90694,531.01032 818.90694,531.87965 C 818.90694,532.62907 819.66949,532.83418 820.94758,532.42853 C 822.06994,532.07231 825.37497,532.53158 828.29209,533.44912 C 833.19251,534.9905 833.55975,535.31988 833.11994,537.77941 L 832.64392,540.44143 L 834.64755,538.44143 C 835.74955,537.34143 836.45717,536.10393 836.22004,535.69143 C 835.59716,534.60788 839.32631,534.77018 842.46416,535.96319 C 844.87758,536.88077 845.09882,536.78319 844.63411,535.00613 C 844.22853,533.45518 844.83161,532.79137 847.42336,531.93601 C 852.32574,530.31808 854.23868,524.98763 850.78504,522.5686 C 849.63284,521.76157 848.98728,520.62046 849.35047,520.0328 C 849.75604,519.37657 849.41204,519.19411 848.45888,519.55987 C 847.60531,519.88742 846.90694,520.55726 846.90694,521.04842 C 846.90694,521.53957 846.45694,521.94143 845.90694,521.94143 C 843.58295,521.94143 845.2822,519.96201 850.93833,516.08048 C 854.2556,513.804 857.38417,511.94143 857.89071,511.94143 C 858.39726,511.94143 860.9946,509.75854 863.66258,507.09055 C 868.36539,502.38775 868.54699,501.9857 869.61201,493.91892 C 870.50072,487.18759 871.14534,485.27021 872.9866,483.88134 C 875.12644,482.26726 875.25458,481.51389 875.128,471.29208 C 875.05395,465.31223 875.41702,459.74954 875.93484,458.93053 C 875.93484,458.93053 876.06483,453.94143 876.06483,453.94143 C 876.06483,452.56643 876.29181,452.00393 876.56922,452.69143 C 876.69571,455.3174 876.83297,457.99912 876.89163,460.69143 z"
       id="path7351" />
    <path
       d="M 836.40694,527.47836 C 838.60694,526.11738 840.93194,524.9898 841.57361,524.97264 C 842.21527,524.95547 842.96725,524.37893 843.24466,523.69143 C 843.52207,523.00393 843.78457,522.92549 843.82799,523.51712 C 843.97462,525.51503 838.95638,529.26242 835.67038,529.60884 L 832.40694,529.95287 L 836.40694,527.47836 z"
       id="path7373" />
  </g>
        </symbol>
        <symbol id="mexico-def-jal" viewBox="0 0 1024 1024">
	        <title>mexico-def-jal</title>
            <path
     style="fill:#d3d3d3"
     d="M 436.90694,526.99731 C 436.90694,526.01672 437.339,522.93616 437.86707,520.15164 C 438.6178,516.19306 438.50477,514.44254 437.34882,512.12537 L 435.87042,509.16186 L 427.19231,509.40817 C 419.65869,509.62199 418.39834,509.91413 417.63569,511.62329 C 416.94087,513.18044 414.69387,513.96916 406.88925,515.39538 C 397.7714,517.06158 396.89751,517.07486 395.3927,515.57004 C 394.49696,514.67431 393.06033,513.94143 392.20018,513.94143 C 390.28524,513.94143 385.93627,509.50097 383.90694,505.47371 C 383.08194,503.83648 381.31442,501.95305 379.97912,501.28831 C 377.51741,500.06282 375.00703,496.50547 374.94238,494.15094 C 374.90423,492.76167 370.89269,486.65732 369.65694,486.1081 C 369.24444,485.92476 368.90694,484.71299 368.90694,483.41526 C 368.90694,482.11753 367.9432,479.42234 366.7653,477.42594 C 364.76219,474.03092 364.73199,473.68764 366.29843,472.11878 C 367.21955,471.19624 370.04867,469.99143 372.58538,469.44143 C 375.12316,468.89119 377.69441,467.62548 378.30225,466.62725 C 380.78016,462.55788 387.60796,455.94143 389.32939,455.94143 C 390.34221,455.94143 392.67967,455.00894 394.52376,453.86923 C 398.71943,451.27616 400.98155,451.89728 406.82412,457.24658 L 411.2413,461.29083 L 412.59004,456.66531 C 413.33185,454.12127 414.38162,451.7661 414.92286,451.43159 C 416.3868,450.52683 416.11301,447.00464 414.44943,445.34106 C 412.53001,443.42164 413.52597,440.62885 415.69668,441.84364 C 418.02865,443.14867 421.64495,441.12141 422.40795,438.08137 C 422.92605,436.0171 422.4958,434.98453 420.34759,433.13672 C 417.80385,430.94869 417.7042,430.56148 418.76966,427.00529 C 420.26955,421.99912 420.40031,422.49329 416.40583,418.07188 L 412.90472,414.19658 L 414.50632,407.1045 C 416.19181,399.6409 417.25887,398.54453 422.90694,398.47306 C 424.91189,398.44769 425.4723,397.86885 425.73702,395.54994 C 425.91856,393.95962 425.51548,392.31753 424.8413,391.90086 C 422.65308,390.54847 424.65704,387.77926 427.57414,388.12446 C 430.29826,388.44682 432.19647,390.94143 429.71763,390.94143 C 428.47974,390.94143 426.82424,395.50735 425.22985,403.31883 C 424.78619,405.49246 424.98061,406.08431 426.02474,405.73865 C 427.4969,405.2513 429.30575,402.24948 430.93938,397.58274 C 431.7763,395.19192 432.18489,394.92722 433.43584,395.96542 C 434.38678,396.75463 434.59797,397.61376 434.01565,398.32411 C 433.51187,398.93864 432.7852,401.98305 432.40083,405.08947 L 431.70197,410.7375 L 434.84542,411.42792 C 438.85537,412.30865 440.90694,410.66091 440.90694,406.55953 C 440.90694,402.54208 443.28592,400.98432 447.65694,402.13961 C 451.49839,403.15494 451.54123,403.49648 448.77794,411.07507 C 446.78218,416.54864 446.46044,416.89926 443.63675,416.67774 C 441.93911,416.54456 440.43161,416.98694 440.18242,417.69143 C 439.93924,418.37893 440.45277,418.94143 441.32361,418.94143 C 442.19444,418.94143 442.90694,419.38286 442.90694,419.92238 C 442.90694,421.05614 439.32336,422.02437 436.40694,421.67857 C 434.99148,421.51074 434.49282,421.9529 434.70078,423.19143 C 434.86239,424.15393 434.49456,424.94143 433.88339,424.94143 C 433.26116,424.94143 433.02806,425.7477 433.35369,426.77365 C 433.71369,427.9079 433.16914,429.29915 431.92422,430.42579 C 430.81817,431.42675 429.15463,434.65226 428.22746,437.59358 C 427.30029,440.5349 425.94888,442.94143 425.22432,442.94143 C 423.02265,442.94143 423.75376,445.75804 426.1531,446.51956 C 427.38849,446.91166 428.89145,447.90558 429.49302,448.72827 C 430.3404,449.88713 431.46757,450.03612 434.49686,449.38969 C 436.6474,448.93078 440.43194,448.51627 442.90694,448.46855 C 457.96621,448.17823 458.38467,448.09261 463.24283,444.30766 C 468.48967,440.21988 469.38079,436.58522 465.90694,433.44143 C 463.29212,431.07505 463.38426,430.1367 466.36475,428.7787 C 468.36927,427.86538 469.76908,428.06602 473.95467,429.86662 C 479.90092,432.42462 482.61703,431.91793 487.64619,427.31245 C 489.37053,425.73339 492.21427,423.16864 493.96562,421.61301 L 497.1499,418.78458 L 500.32603,421.86301 C 502.0729,423.55614 504.23682,424.94143 505.13474,424.94143 C 506.48751,424.94143 506.61383,425.47664 505.87175,428.06412 C 505.37918,429.78161 504.17968,432.36911 503.20619,433.81412 C 502.04219,435.54192 501.54318,437.84403 501.74867,440.53817 C 502.03321,444.26867 501.79383,444.74564 499.07104,445.87346 C 497.37576,446.57567 495.82966,448.1132 495.50065,449.42407 C 495.18149,450.69571 493.28247,453.69483 491.2806,456.08878 C 485.99095,462.41446 485.36978,464.19198 487.37785,467.25668 C 488.9804,469.7025 488.95502,469.95739 486.82142,472.84323 C 485.08906,475.18638 483.55274,476.00619 479.99638,476.48519 C 473.7337,477.32871 469.29007,478.77486 467.93175,480.41154 C 467.3074,481.16383 463.77218,482.28947 460.0757,482.91297 C 452.28017,484.22785 451.78211,484.49577 450.12388,488.26637 C 448.64752,491.62341 449.23875,492.9432 452.21596,492.93648 C 453.421,492.93376 456.50491,493.68344 459.06909,494.60244 C 463.45577,496.17461 463.6743,496.42312 462.76751,498.80815 C 462.12332,500.50251 462.18506,502.93232 462.95375,506.13655 C 463.98296,510.42679 464.34444,510.86973 466.39623,510.35476 C 467.65712,510.0383 468.98344,510.2562 469.34362,510.83898 C 470.40592,512.55782 465.92361,517.6881 462.81666,518.30949 C 461.24047,518.62472 457.44454,520.92407 454.38127,523.41914 C 450.13081,526.88118 448.25844,527.81677 446.47581,527.36936 C 445.19107,527.04691 442.51251,527.23244 440.52343,527.78165 C 437.34701,528.65871 436.90694,528.56326 436.90694,526.99731 z"
     id="JAL" />
        </symbol>
        
    </defs>
</svg>

 
